<svg width="46" height="27" viewBox="0 0 46 27" fill="none" xmlns="http://www.w3.org/2000/svg">
<path d="M3.08003 0.34V7.55C3.08003 7.802 3.13603 7.984 3.24803 8.096C3.36936 8.208 3.56536 8.264 3.83603 8.264H7.15403L7.25203 9.888C6.30936 9.99067 4.94669 10.042 3.16403 10.042C2.41736 10.042 1.86203 9.85533 1.49803 9.482C1.13403 9.10867 0.952026 8.60933 0.952026 7.984V0.34H3.08003Z" fill="#515070"/>
<path d="M8.86848 1.236C9.47515 0.517334 10.5531 0.158001 12.1025 0.158001C13.6518 0.158001 14.7298 0.517334 15.3365 1.236C15.9431 1.94533 16.2465 3.25667 16.2465 5.17C16.2465 7.08333 15.9431 8.39933 15.3365 9.118C14.7298 9.82733 13.6518 10.182 12.1025 10.182C10.5531 10.182 9.47515 9.82733 8.86848 9.118C8.27115 8.39933 7.97248 7.08333 7.97248 5.17C7.97248 3.25667 8.27115 1.94533 8.86848 1.236ZM13.5865 2.566C13.3251 2.10867 12.8305 1.88 12.1025 1.88C11.3745 1.88 10.8751 2.10867 10.6045 2.566C10.3431 3.02333 10.2125 3.89133 10.2125 5.17C10.2125 6.44867 10.3431 7.31667 10.6045 7.774C10.8751 8.23133 11.3745 8.46 12.1025 8.46C12.8305 8.46 13.3251 8.23133 13.5865 7.774C13.8571 7.31667 13.9925 6.44867 13.9925 5.17C13.9925 3.89133 13.8571 3.02333 13.5865 2.566Z" fill="#515070"/>
<path d="M25.4808 10H23.2268L22.4988 7.046C22.4055 6.738 22.2795 6.528 22.1208 6.416C21.9715 6.29467 21.7521 6.234 21.4628 6.234L19.9648 6.22V10H17.8648V0.34C18.7328 0.256 19.9601 0.214 21.5468 0.214C22.8441 0.214 23.7635 0.419333 24.3048 0.83C24.8461 1.24067 25.1168 1.98733 25.1168 3.07C25.1168 3.77933 24.9721 4.33467 24.6828 4.736C24.4028 5.13733 23.9315 5.38 23.2688 5.464V5.534C24.0061 5.702 24.4635 6.18733 24.6408 6.99L25.4808 10ZM19.9648 4.582H21.5048C22.0648 4.582 22.4475 4.48867 22.6528 4.302C22.8581 4.106 22.9608 3.742 22.9608 3.21C22.9608 2.678 22.8581 2.31867 22.6528 2.132C22.4568 1.94533 22.0741 1.852 21.5048 1.852L19.9648 1.866V4.582Z" fill="#515070"/>
<path d="M33.2869 8.334L33.3849 9.902C32.5076 9.99533 31.0142 10.042 28.9049 10.042C28.2609 10.042 27.7476 9.86933 27.3649 9.524C26.9822 9.16933 26.7862 8.69333 26.7769 8.096V2.244C26.7862 1.64667 26.9822 1.17533 27.3649 0.83C27.7476 0.475334 28.2609 0.298001 28.9049 0.298001C31.0142 0.298001 32.5076 0.344667 33.3849 0.438001L33.2869 2.02H29.5769C29.3436 2.02 29.1756 2.076 29.0729 2.188C28.9702 2.3 28.9189 2.482 28.9189 2.734V4.204H32.7689V5.744H28.9189V7.606C28.9189 7.86733 28.9702 8.054 29.0729 8.166C29.1756 8.278 29.3436 8.334 29.5769 8.334H33.2869Z" fill="#515070"/>
<path d="M42.6833 0.34H44.7413C45.2546 0.34 45.5206 0.606 45.5393 1.138L45.9173 10H43.9013L43.5793 2.006H43.3413L41.8853 7.984C41.792 8.44133 41.5026 8.67 41.0173 8.67H39.6173C39.132 8.67 38.8426 8.44133 38.7493 7.984L37.2793 2.006H37.0413L36.7613 10H34.7453L35.0953 1.138C35.1233 0.606 35.3893 0.34 35.8933 0.34H37.9513C38.4086 0.34 38.6886 0.568667 38.7913 1.026L39.9673 5.842C40.042 6.15 40.126 6.60267 40.2193 7.2H40.4013C40.4106 7.15333 40.4433 6.962 40.4993 6.626C40.5646 6.29 40.616 6.02867 40.6533 5.842L41.8153 1.026C41.9273 0.568667 42.2166 0.34 42.6833 0.34Z" fill="#515070"/>
<path d="M3.10803 26H0.980026V16.34H3.10803V26Z" fill="#515070"/>
<path d="M5.06792 26V16.34C5.93592 16.256 7.15858 16.214 8.73592 16.214C10.0893 16.214 11.0133 16.4333 11.5079 16.872C12.0119 17.3107 12.2639 18.1413 12.2639 19.364C12.2639 20.5867 12.0259 21.422 11.5499 21.87C11.0833 22.3087 10.2386 22.528 9.01592 22.528C8.39992 22.528 7.79325 22.4907 7.19592 22.416V26H5.06792ZM7.19592 20.89H8.69392C9.24458 20.8807 9.61792 20.7733 9.81392 20.568C10.0193 20.3627 10.1219 19.9613 10.1219 19.364C10.1219 18.7667 10.0193 18.3653 9.81392 18.16C9.61792 17.9547 9.24458 17.852 8.69392 17.852L7.19592 17.866V20.89Z" fill="#515070"/>
<path d="M17.2375 22.346L15.2915 21.66C14.5729 21.3987 14.0595 21.044 13.7515 20.596C13.4435 20.148 13.2895 19.56 13.2895 18.832C13.2895 17.768 13.5462 17.0587 14.0595 16.704C14.5822 16.34 15.4969 16.158 16.8035 16.158C18.0355 16.158 19.0949 16.284 19.9815 16.536L19.8415 17.992C19.0295 17.964 18.0215 17.95 16.8175 17.95C16.2575 17.95 15.8842 18.0013 15.6975 18.104C15.5109 18.1973 15.4175 18.44 15.4175 18.832C15.4175 19.1493 15.4875 19.378 15.6275 19.518C15.7675 19.658 16.0335 19.7933 16.4255 19.924L18.2595 20.554C19.0062 20.8153 19.5335 21.1747 19.8415 21.632C20.1495 22.08 20.3035 22.668 20.3035 23.396C20.3035 24.4787 20.0422 25.216 19.5195 25.608C18.9969 25.9907 18.0635 26.182 16.7195 26.182C15.6275 26.182 14.5215 26.0607 13.4015 25.818L13.5275 24.278C15.5155 24.3247 16.5795 24.348 16.7195 24.348C17.2889 24.348 17.6669 24.2873 17.8535 24.166C18.0495 24.0447 18.1475 23.7927 18.1475 23.41C18.1475 23.0833 18.0822 22.8547 17.9515 22.724C17.8209 22.584 17.5829 22.458 17.2375 22.346Z" fill="#515070"/>
<path d="M29.474 16.34V22.15C29.474 23.6247 29.1893 24.6653 28.62 25.272C28.06 25.8787 27.0893 26.182 25.708 26.182C24.252 26.182 23.2253 25.8787 22.628 25.272C22.04 24.6653 21.746 23.6247 21.746 22.15V16.34H23.874V22.15C23.874 23.0367 23.9953 23.6433 24.238 23.97C24.49 24.2967 24.9473 24.46 25.61 24.46C26.2633 24.46 26.7113 24.2967 26.954 23.97C27.206 23.6433 27.332 23.0367 27.332 22.15V16.34H29.474Z" fill="#515070"/>
<path d="M39.1013 16.34H41.1593C41.6726 16.34 41.9386 16.606 41.9573 17.138L42.3353 26H40.3193L39.9973 18.006H39.7593L38.3033 23.984C38.2099 24.4413 37.9206 24.67 37.4353 24.67H36.0353C35.5499 24.67 35.2606 24.4413 35.1673 23.984L33.6973 18.006H33.4593L33.1793 26H31.1633L31.5133 17.138C31.5413 16.606 31.8073 16.34 32.3113 16.34H34.3693C34.8266 16.34 35.1066 16.5687 35.2093 17.026L36.3853 21.842C36.4599 22.15 36.5439 22.6027 36.6373 23.2H36.8193C36.8286 23.1533 36.8613 22.962 36.9173 22.626C36.9826 22.29 37.0339 22.0287 37.0713 21.842L38.2333 17.026C38.3453 16.5687 38.6346 16.34 39.1013 16.34Z" fill="#515070"/>
</svg>
